# xmcd
#
# Track frame offsets:
#	150
#	11465
#	26970
#	37772
#	49282
#	61737
#	79257
#	90397
#	104520
#	113782
#	125457
#	138812
#	150195
#	163362
#	173987
#	185302
#	197572
#	209555
#	221232
#	233525
#	248175
#
# Disc length: 3433 seconds
#
# Revision: 0
# Processed by: cddbd v1.5.2PL0 Copyright (c) Steve Scherf et al.
# Submitted via: EasyCDDAExtractor 10.0.2.1
#
DISCID=190d6715
DTITLE=CHRIS LANGE - RUSTY STRINGS - CHRIS LANGE'S GUITAR BLUES
DYEAR=2006
DGENRE=Blues
TTITLE0=Harmonica Rock (1962)
TTITLE1=Thinking About You (1964)
TTITLE2=It's Boogie Time (62)
TTITLE3=Elmore's Death (64)
TTITLE4=Honkin' Blues
TTITLE5=Christmas Blues (61)
TTITLE6=Happy Harmonica (62)
TTITLE7=Woodchopper Blues (feat. Jack Dupree) 61
TTITLE8=Helen's Dream (63)
TTITLE9=Rock'n'Rollin' Rhythm&Blues (63)
TTITLE10=Slidin' In My Heart (61)
TTITLE11=The Blues Way Down At The Bottom (66)
TTITLE12=Muddy's Thought (65)
TTITLE13=Horseback (67)
TTITLE14=Memory Exchange (67)
TTITLE15=Soulful Love (66)
TTITLE16=Blow Away (67)
TTITLE17=Call On Me (1963)
TTITLE18=Mississippi Delta (1966)
TTITLE19=Roberta (The Girl From The Pastry Shop)
TTITLE20=Blues For Evelyn (1961)
EXTD=
EXTT0=
EXTT1=
EXTT2=
EXTT3=
EXTT4=
EXTT5=
EXTT6=
EXTT7=
EXTT8=
EXTT9=
EXTT10=
EXTT11=
EXTT12=
EXTT13=
EXTT14=
EXTT15=
EXTT16=
EXTT17=
EXTT18=
EXTT19=
EXTT20=
PLAYORDER=
